<svg height="512pt" viewBox="0 0 512 512" width="512pt" xmlns="http://www.w3.org/2000/svg"><path d="m346.960938 0c-8.292969 0-15.003907 6.710938-15.003907 15.003906 0 8.292969 6.710938 15.003906 15.003907 15.003906 74.460937 0 135.03125 60.570313 135.03125 135.03125 0 8.292969 6.710937 14.804688 15.003906 14.804688 8.292968 0 15.003906-6.511719 15.003906-14.804688 0-91.003906-74.035156-165.039062-165.039062-165.039062zm0 0"/><path d="m346.960938 60.015625c-8.292969 0-15.003907 6.710937-15.003907 15.003906s6.710938 15 15.003907 15c41.363281 0 75.019531 33.65625 75.019531 75.019531 0 8.292969 6.707031 14.804688 15 14.804688s15.003906-6.511719 15.003906-14.804688c0-57.90625-47.117187-105.023437-105.023437-105.023437zm0 0"/><path d="m346.960938 120.027344c-8.292969 0-15.003907 6.710937-15.003907 15.003906s6.710938 15.003906 15.003907 15.003906c8.277343 0 15.003906 6.726563 15.003906 15.003906 0 8.292969 6.710937 14.804688 15.003906 14.804688s15.003906-6.511719 15.003906-14.804688c0-24.820312-20.191406-45.011718-45.011718-45.011718zm0 0"/><path d="m312.949219 182.023438-210.050781 30.007812c-7.382813 1.054688-12.878907 7.382812-12.878907 14.855469v201.117187c-8.808593-3.765625-18.941406-6.070312-30.003906-6.070312-33.65625 0-60.015625 19.765625-60.015625 45.011718 0 25.246094 26.359375 45.011719 60.015625 45.011719 33.652344 0 60.011719-19.765625 60.011719-45.011719v-146.398437l180.042968-27.703125v105.152344c-8.808593-3.765625-18.941406-6.070313-30.007812-6.070313-33.652344 0-60.011719 19.765625-60.011719 45.011719s26.359375 45.011719 60.011719 45.011719c33.65625 0 60.015625-19.765625 60.015625-45.011719v-240.058594c0-9.1875-8.195313-16.183594-17.128906-14.855468zm0 0"/></svg>